<svg width="1440" height="420" viewBox="0 0 1440 420" fill="none" xmlns="http://www.w3.org/2000/svg">
<rect width="1440" height="420" fill="url(#paint0_linear)"/>
<rect opacity="0.8" x="775" y="182.465" width="10.5564" height="10.5564" transform="rotate(-45 775 182.465)" fill="#FFE497"/>
<rect opacity="0.3" x="481.195" y="80.5249" width="16.2987" height="16.2987" transform="rotate(-45 481.195 80.5249)" fill="#FCDD87"/>
<rect opacity="0.3" x="224.769" y="147.03" width="22.1946" height="22.1946" transform="rotate(-45 224.769 147.03)" fill="#FCDD87"/>
<g filter="url(#filter0_df)">
<ellipse cx="1347.3" cy="122.713" rx="24.233" ry="26.3532" transform="rotate(-103.69 1347.3 122.713)" fill="#FFCD52"/>
<ellipse cx="1346.34" cy="118.783" rx="24.233" ry="26.3532" transform="rotate(-103.69 1346.34 118.783)" fill="#FFE497"/>
<path d="M1340.73 115.236C1340.34 113.63 1341.54 112.334 1343.42 111.665L1344.76 117.2C1344.48 117.194 1344.22 117.18 1343.95 117.17C1342.05 117.056 1341.01 116.369 1340.73 115.236ZM1352.45 122.057C1352.88 123.806 1351.6 125.227 1349.41 125.941L1347.96 119.99C1348.14 119.978 1348.3 119.97 1348.44 119.98C1351.04 120.001 1352.12 120.694 1352.45 122.057ZM1350.48 130.253L1350.04 128.432C1354.23 127.077 1356.75 124.381 1355.91 120.94C1355.13 117.714 1352.35 116.886 1348.71 117.029L1347.25 117.08L1345.8 111.1C1348 110.836 1349.55 111.751 1349.96 113.169L1353.39 112.335C1352.54 109.291 1349.21 107.945 1345.22 108.568L1344.76 106.704L1342.33 107.296L1342.79 109.16C1339.01 110.431 1336.44 112.969 1337.26 116.324C1338.02 119.436 1341.07 120.302 1344.06 120.181L1345.48 120.14L1347.03 126.506C1344.49 126.838 1342.87 125.939 1342.38 124.419L1338.89 125.27C1339.57 127.914 1342.39 129.976 1347.61 129.038L1348.05 130.845L1350.48 130.253Z" fill="white"/>
</g>
<g filter="url(#filter1_df)">
<ellipse cx="121.079" cy="213.543" rx="28.5684" ry="31.0678" transform="rotate(-103.69 121.079 213.543)" fill="#FFCD52"/>
<ellipse cx="119.946" cy="208.909" rx="28.5684" ry="31.0678" transform="rotate(-103.69 119.946 208.909)" fill="#FFE497"/>
<path d="M113.333 204.728C112.872 202.834 114.291 201.307 116.5 200.518L118.089 207.043C117.751 207.036 117.452 207.02 117.133 207.008C114.888 206.874 113.659 206.063 113.333 204.728ZM127.152 212.769C127.654 214.831 126.145 216.506 123.57 217.348L121.861 210.333C122.068 210.318 122.255 210.308 122.427 210.32C125.487 210.345 126.76 211.163 127.152 212.769ZM124.829 222.431L124.306 220.285C129.246 218.687 132.222 215.509 131.233 211.452C130.307 207.649 127.036 206.673 122.738 206.842L121.025 206.901L119.308 199.852C121.907 199.541 123.729 200.62 124.22 202.291L128.257 201.307C127.256 197.719 123.331 196.132 118.623 196.867L118.088 194.67L115.224 195.367L115.76 197.565C111.301 199.063 108.28 202.055 109.243 206.011C110.137 209.679 113.735 210.7 117.26 210.558L118.934 210.509L120.762 218.014C117.76 218.405 115.859 217.346 115.276 215.554L111.159 216.557C111.961 219.674 115.291 222.104 121.447 220.999L121.965 223.129L124.829 222.431Z" fill="white"/>
</g>
<g opacity="0.5">
<ellipse rx="12.9939" ry="19.6817" transform="matrix(-0.512661 -0.858591 0.87966 -0.475603 319.083 241.174)" fill="#D79E13"/>
<ellipse rx="12.9939" ry="19.6817" transform="matrix(-0.512661 -0.858591 0.87966 -0.475603 317.976 239.315)" fill="#FFCA49"/>
<path d="M313.634 238.756C313.179 237.995 313.881 237.022 315.124 236.224L316.69 238.847C316.488 238.911 316.308 238.964 316.116 239.022C314.765 239.411 313.954 239.292 313.634 238.756ZM322.639 239.612C323.134 240.441 322.392 241.498 320.936 242.393L319.252 239.574C319.374 239.526 319.485 239.484 319.588 239.455C321.416 238.853 322.254 238.966 322.639 239.612ZM322.168 244.432L321.653 243.569C324.449 241.86 325.923 239.831 324.95 238.201C324.037 236.672 321.993 236.887 319.445 237.825L318.428 238.194L316.737 235.361C318.258 234.7 319.447 234.822 319.898 235.476L322.214 234.225C321.277 232.808 318.785 232.879 316.045 234.153L315.518 233.27L313.876 234.158L314.403 235.041C311.885 236.609 310.366 238.563 311.315 240.153C312.195 241.627 314.439 241.367 316.528 240.597L317.522 240.239L319.323 243.256C317.57 244.033 316.335 243.937 315.817 243.246L313.456 244.523C314.23 245.767 316.447 246.196 320.015 244.464L320.526 245.32L322.168 244.432Z" fill="white"/>
</g>
<g opacity="0.5">
<ellipse rx="9.37049" ry="14.1934" transform="matrix(0.436803 -0.899557 0.880124 0.474744 1183.58 73.6327)" fill="#D79E13"/>
<ellipse rx="9.37049" ry="14.1934" transform="matrix(0.436803 -0.899557 0.880124 0.474744 1184.27 72.2298)" fill="#FFCA49"/>
<path d="M1182.89 69.3899C1183.17 68.8149 1184.03 68.8534 1185 69.2876L1184.04 71.2691C1183.92 71.1725 1183.82 71.0846 1183.71 70.9924C1182.94 70.3312 1182.69 69.7955 1182.89 69.3899ZM1185.93 75.1591C1185.63 75.7854 1184.7 75.7562 1183.58 75.2318L1184.62 73.1014C1184.69 73.1561 1184.76 73.2063 1184.82 73.2572C1185.91 74.1216 1186.17 74.6714 1185.93 75.1591ZM1182.84 76.7815L1183.16 76.1295C1185.29 77.1396 1187.1 77.2264 1187.7 75.9944C1188.26 74.8393 1187.32 73.6919 1185.75 72.526L1185.12 72.0593L1186.16 69.9186C1187.16 70.5748 1187.56 71.3396 1187.34 71.8707L1189.01 72.7718C1189.5 71.6466 1188.47 70.1719 1186.62 69.024L1186.94 68.3566L1185.76 67.7174L1185.43 68.3848C1183.49 67.4864 1181.71 67.3431 1181.13 68.5443C1180.59 69.6583 1181.63 70.9082 1182.92 71.8637L1183.53 72.3215L1182.42 74.6008C1181.26 73.8508 1180.83 73.0682 1181.04 72.4827L1179.34 71.5638C1178.89 72.5224 1179.51 74.0287 1181.97 75.4954L1181.65 76.1423L1182.84 76.7815Z" fill="white"/>
</g>
<g filter="url(#filter2_d)">
<ellipse rx="13.9316" ry="18.8439" transform="matrix(0.450297 -0.892879 0.903779 0.428 1374.3 75.5777)" fill="#F2B300"/>
<ellipse rx="13.9316" ry="18.8439" transform="matrix(0.450297 -0.892879 0.903779 0.428 1375.35 73.5059)" fill="#FFCA47"/>
<path d="M1373.6 69.6357C1374.03 68.7872 1375.23 68.7388 1376.56 69.2385L1375.09 72.1627C1374.93 72.0398 1374.79 71.9275 1374.64 71.8099C1373.61 70.9642 1373.3 70.2342 1373.6 69.6357ZM1377.48 77.4526C1377.01 78.3768 1375.71 78.4464 1374.19 77.836L1375.77 74.6921C1375.88 74.7604 1375.97 74.8233 1376.05 74.8886C1377.51 75.9847 1377.84 76.7329 1377.48 77.4526ZM1373.05 80.1215L1373.53 79.1594C1376.46 80.337 1378.98 80.2448 1379.89 78.4267C1380.75 76.7222 1379.52 75.2071 1377.39 73.7414L1376.55 73.1542L1378.14 69.9952C1379.5 70.8063 1380 71.8434 1379.67 72.6222L1381.94 73.7008C1382.69 72.0477 1381.35 70.0794 1378.84 68.6725L1379.33 67.6877L1377.72 66.9226L1377.22 67.9074C1374.56 66.865 1372.09 66.8738 1371.19 68.6465C1370.36 70.2904 1371.74 71.9382 1373.49 73.1391L1374.31 73.7157L1372.61 77.0792C1371.03 76.1543 1370.48 75.0959 1370.82 74.2406L1368.49 73.1408C1367.81 74.5529 1368.58 76.6148 1371.92 78.4019L1371.43 79.3565L1373.05 80.1215Z" fill="white"/>
</g>
<g filter="url(#filter3_d)">
<ellipse rx="10.4001" ry="11.2725" transform="matrix(0.309104 -0.951028 0.958406 0.285407 386.018 100.555)" fill="#F2B300"/>
<ellipse rx="10.4001" ry="11.2725" transform="matrix(0.309104 -0.951028 0.958406 0.285407 386.556 98.907)" fill="#FFCA47"/>
<path d="M385.293 96.3911C385.512 95.7164 386.246 95.499 387.085 95.6563L386.329 97.9814C386.225 97.9174 386.135 97.8576 386.038 97.7957C385.365 97.3442 385.138 96.8669 385.293 96.3911ZM388.052 101.421C387.814 102.156 387.023 102.403 386.06 102.196L386.873 99.6958C386.94 99.729 387 99.7602 387.051 99.7952C387.999 100.362 388.238 100.849 388.052 101.421ZM385.478 104.011L385.727 103.246C387.57 103.65 389.105 103.202 389.575 101.756C390.016 100.401 389.185 99.499 387.814 98.7673L387.27 98.473L388.086 95.9611C388.955 96.3387 389.315 97.0076 389.148 97.6184L390.593 98.0487C390.969 96.7469 390.051 95.5355 388.445 94.9052L388.7 94.1222L387.675 93.817L387.42 94.6C385.746 94.2532 384.232 94.635 383.774 96.0445C383.349 97.3516 384.273 98.3271 385.398 98.9262L385.928 99.2162L385.059 101.891C384.05 101.465 383.661 100.787 383.822 100.122L382.349 99.6833C382.001 100.802 382.572 102.168 384.7 102.947L384.453 103.706L385.478 104.011Z" fill="white"/>
</g>
<g filter="url(#filter4_d)">
<ellipse rx="16.1276" ry="17.4804" transform="matrix(-0.257323 -0.966325 0.959642 -0.281225 1159.62 186.099)" fill="#F2B300"/>
<ellipse rx="16.1276" ry="17.4804" transform="matrix(-0.257323 -0.966325 0.959642 -0.281225 1158.93 183.5)" fill="#FFCA47"/>
<path d="M1155.16 181.29C1154.88 180.227 1155.65 179.325 1156.88 178.823L1157.85 182.487C1157.66 182.491 1157.5 182.489 1157.32 182.49C1156.06 182.469 1155.36 182.04 1155.16 181.29ZM1162.99 185.512C1163.3 186.67 1162.48 187.658 1161.05 188.199L1160 184.26C1160.12 184.247 1160.22 184.237 1160.32 184.239C1162.03 184.178 1162.75 184.611 1162.99 185.512ZM1161.82 191.053L1161.5 189.847C1164.24 188.819 1165.86 186.943 1165.26 184.665C1164.69 182.529 1162.85 182.056 1160.45 182.258L1159.49 182.334L1158.44 178.376C1159.89 178.135 1160.92 178.703 1161.22 179.639L1163.46 178.981C1162.85 176.97 1160.64 176.166 1158.01 176.699L1157.69 175.465L1156.09 175.931L1156.42 177.165C1153.95 178.125 1152.3 179.897 1152.89 182.118C1153.44 184.178 1155.47 184.669 1157.44 184.502L1158.37 184.432L1159.49 188.646C1157.82 188.942 1156.74 188.388 1156.39 187.386L1154.11 188.056C1154.59 189.805 1156.49 191.102 1159.92 190.323L1160.23 191.519L1161.82 191.053Z" fill="white"/>
</g>
<ellipse rx="15.5378" ry="15.9678" transform="matrix(-0.409261 -0.912417 0.897902 -0.440195 224.756 213.371)" fill="#FFC12A"/>
<ellipse rx="15.5378" ry="15.9678" transform="matrix(-0.409261 -0.912417 0.897902 -0.440195 223.705 211.004)" fill="#FCD872"/>
<path d="M219.925 209.446C219.491 208.479 220.038 207.516 221.061 206.867L222.556 210.2C222.385 210.231 222.233 210.252 222.072 210.279C220.934 210.437 220.231 210.128 219.925 209.446ZM227.709 212.339C228.182 213.392 227.605 214.444 226.405 215.159L224.797 211.576C224.9 211.547 224.992 211.522 225.08 211.511C226.616 211.211 227.341 211.519 227.709 212.339ZM227.58 217.753L227.088 216.657C229.392 215.295 230.543 213.288 229.613 211.216C228.742 209.273 226.999 209.085 224.863 209.616L224.011 209.823L222.396 206.223C223.666 205.79 224.694 206.181 225.119 207.026L227.036 206.086C226.151 204.266 224.014 203.818 221.734 204.694L221.23 203.571L219.87 204.238L220.374 205.361C218.3 206.62 217.106 208.532 218.013 210.552C218.853 212.426 220.765 212.605 222.516 212.167L223.349 211.97L225.069 215.803C223.607 216.32 222.541 215.947 222.057 215.047L220.102 216.005C220.837 217.593 222.766 218.554 225.732 217.332L226.22 218.42L227.58 217.753Z" fill="white"/>
<defs>
<filter id="filter0_df" x="1310" y="84.0015" width="73.643" height="73.4927" filterUnits="userSpaceOnUse" color-interpolation-filters="sRGB">
<feFlood flood-opacity="0" result="BackgroundImageFix"/>
<feColorMatrix in="SourceAlpha" type="matrix" values="0 0 0 0 0 0 0 0 0 0 0 0 0 0 0 0 0 0 127 0" result="hardAlpha"/>
<feOffset dy="2.46889"/>
<feGaussianBlur stdDeviation="1.23444"/>
<feColorMatrix type="matrix" values="0 0 0 0 0.380392 0 0 0 0 0.505882 0 0 0 0 0.596078 0 0 0 0.12 0"/>
<feBlend mode="normal" in2="BackgroundImageFix" result="effect1_dropShadow"/>
<feBlend mode="normal" in="SourceGraphic" in2="effect1_dropShadow" result="shape"/>
<feGaussianBlur stdDeviation="2.5" result="effect2_foregroundBlur"/>
</filter>
<filter id="filter1_df" x="65" y="155.799" width="111.026" height="110.853" filterUnits="userSpaceOnUse" color-interpolation-filters="sRGB">
<feFlood flood-opacity="0" result="BackgroundImageFix"/>
<feColorMatrix in="SourceAlpha" type="matrix" values="0 0 0 0 0 0 0 0 0 0 0 0 0 0 0 0 0 0 127 0" result="hardAlpha"/>
<feOffset dy="2.46889"/>
<feGaussianBlur stdDeviation="1.23444"/>
<feColorMatrix type="matrix" values="0 0 0 0 0.380392 0 0 0 0 0.505882 0 0 0 0 0.596078 0 0 0 0.12 0"/>
<feBlend mode="normal" in2="BackgroundImageFix" result="effect1_dropShadow"/>
<feBlend mode="normal" in="SourceGraphic" in2="effect1_dropShadow" result="shape"/>
<feGaussianBlur stdDeviation="9" result="effect2_foregroundBlur"/>
</filter>
<filter id="filter2_d" x="1354.58" y="58.6792" width="39.4495" height="33.8177" filterUnits="userSpaceOnUse" color-interpolation-filters="sRGB">
<feFlood flood-opacity="0" result="BackgroundImageFix"/>
<feColorMatrix in="SourceAlpha" type="matrix" values="0 0 0 0 0 0 0 0 0 0 0 0 0 0 0 0 0 0 127 0" result="hardAlpha"/>
<feOffset dx="-0.523108" dy="1.04622"/>
<feGaussianBlur stdDeviation="0.523108"/>
<feColorMatrix type="matrix" values="0 0 0 0 0.247059 0 0 0 0 0.34902 0 0 0 0 0.423529 0 0 0 0.12 0"/>
<feBlend mode="normal" in2="BackgroundImageFix" result="effect1_dropShadow"/>
<feBlend mode="normal" in="SourceGraphic" in2="effect1_dropShadow" result="shape"/>
</filter>
<filter id="filter3_d" x="373.174" y="88.5034" width="25.1794" height="24.5477" filterUnits="userSpaceOnUse" color-interpolation-filters="sRGB">
<feFlood flood-opacity="0" result="BackgroundImageFix"/>
<feColorMatrix in="SourceAlpha" type="matrix" values="0 0 0 0 0 0 0 0 0 0 0 0 0 0 0 0 0 0 127 0" result="hardAlpha"/>
<feOffset dx="-0.523108" dy="1.04622"/>
<feGaussianBlur stdDeviation="0.523108"/>
<feColorMatrix type="matrix" values="0 0 0 0 0.247059 0 0 0 0 0.34902 0 0 0 0 0.423529 0 0 0 0.12 0"/>
<feBlend mode="normal" in2="BackgroundImageFix" result="effect1_dropShadow"/>
<feBlend mode="normal" in="SourceGraphic" in2="effect1_dropShadow" result="shape"/>
</filter>
<filter id="filter4_d" x="1140.07" y="167.155" width="37.3508" height="37.3825" filterUnits="userSpaceOnUse" color-interpolation-filters="sRGB">
<feFlood flood-opacity="0" result="BackgroundImageFix"/>
<feColorMatrix in="SourceAlpha" type="matrix" values="0 0 0 0 0 0 0 0 0 0 0 0 0 0 0 0 0 0 127 0" result="hardAlpha"/>
<feOffset dx="-0.523108" dy="1.04622"/>
<feGaussianBlur stdDeviation="0.523108"/>
<feColorMatrix type="matrix" values="0 0 0 0 0.247059 0 0 0 0 0.34902 0 0 0 0 0.423529 0 0 0 0.12 0"/>
<feBlend mode="normal" in2="BackgroundImageFix" result="effect1_dropShadow"/>
<feBlend mode="normal" in="SourceGraphic" in2="effect1_dropShadow" result="shape"/>
</filter>
<linearGradient id="paint0_linear" x1="720" y1="0" x2="733.207" y2="410.635" gradientUnits="userSpaceOnUse">
<stop stop-color="#FFF2D1"/>
<stop offset="1" stop-color="#FFF2D1" stop-opacity="0.08"/>
</linearGradient>
</defs>
</svg>
