<svg width="171" height="24" viewBox="0 0 171 24" fill="none" xmlns="http://www.w3.org/2000/svg">
<mask id="mask0" mask-type="alpha" maskUnits="userSpaceOnUse" x="0" y="5" width="79" height="13">
<path fill-rule="evenodd" clip-rule="evenodd" d="M0 5.40039H78.1885V17.574H0V5.40039Z" fill="white"/>
</mask>
<g mask="url(#mask0)">
<path fill-rule="evenodd" clip-rule="evenodd" d="M49.7504 6.11062V9.56315C49.3186 9.10248 48.9052 8.74342 48.4812 8.51161C48.061 8.2867 47.6012 8.18115 47.1151 8.18115C46.2429 8.18115 45.5187 8.47412 44.9504 9.11728C44.4063 9.72394 44.1255 10.5289 44.1255 11.5301C44.1255 12.4603 44.4276 13.2278 44.9678 13.8591C45.54 14.4746 46.2603 14.7715 47.1151 14.7715C47.6012 14.7715 48.061 14.661 48.4812 14.4361C48.9052 14.2181 49.3186 13.8591 49.7504 13.3659V16.8421C49.2538 17.0591 48.7716 17.2593 48.3001 17.3797C47.789 17.5069 47.3097 17.5552 46.816 17.5552C46.1964 17.5552 45.6049 17.4921 45.0937 17.3274C44.5564 17.1883 44.0771 16.9585 43.6231 16.6517C42.7876 16.0716 42.1389 15.3368 41.6936 14.4608C41.2385 13.5651 41.0256 12.5767 41.0256 11.4709C41.0256 10.5821 41.1669 9.77129 41.4448 9.05316C41.7197 8.32024 42.1602 7.67314 42.7237 7.07634C43.2697 6.51802 43.8719 6.09681 44.5564 5.81667C45.2253 5.5306 45.9892 5.40039 46.816 5.40039C47.3097 5.40039 47.789 5.44577 48.3001 5.56808C48.7716 5.69829 49.2538 5.865 49.7504 6.11062ZM28.7408 17.2593V5.65489H31.8427V10.1816H35.9815V5.65489H39.0902V17.2593H35.9815V12.5392H31.8427V17.2593H28.7408ZM26.9886 6.11062V9.56315C26.5597 9.10248 26.1443 8.74342 25.7193 8.51161C25.3127 8.2867 24.8441 8.18115 24.3668 8.18115C23.4626 8.18115 22.7452 8.47412 22.1943 9.11728C21.6464 9.72394 21.3627 10.5289 21.3627 11.5301C21.3627 12.4603 21.6551 13.2278 22.2079 13.8591C22.781 14.4746 23.4975 14.7715 24.3668 14.7715C24.8441 14.7715 25.3127 14.661 25.7193 14.4361C26.1443 14.2181 26.5597 13.8591 26.9886 13.3659V16.8421C26.4871 17.0591 26.0117 17.2593 25.5257 17.3797C25.0329 17.5069 24.5479 17.5552 24.0551 17.5552C23.4355 17.5552 22.8449 17.4921 22.3289 17.3274C21.7945 17.1883 21.3191 16.9585 20.8719 16.6517C20.0267 16.0716 19.379 15.3368 18.9249 14.4608C18.4767 13.5651 18.254 12.5767 18.254 11.4709C18.254 10.5821 18.4147 9.77129 18.6887 9.05316C18.9695 8.32024 19.3896 7.67314 19.9599 7.07634C20.5117 6.51802 21.1071 6.09681 21.7819 5.81667C22.4664 5.5306 23.2099 5.40039 24.0551 5.40039C24.5479 5.40039 25.0329 5.44577 25.5257 5.56808C26.0117 5.69829 26.4871 5.865 26.9886 6.11062ZM9.72561 17.2593V5.65489H16.6885V8.21469H12.7385V10.2162H16.4619V12.7049H12.7385V14.661H16.6885V17.2593H9.72561ZM57.1142 5.41225V8.0707C56.2545 8.0707 55.5439 8.40609 54.9727 9.05319C54.4024 9.70325 54.1294 10.518 54.1294 11.4926C54.1294 12.4751 54.4024 13.2939 54.9582 13.9311C55.51 14.5792 56.2332 14.8899 57.1142 14.8899V17.574C56.2961 17.574 55.51 17.4172 54.7703 17.1193C54.0268 16.8016 53.384 16.3656 52.805 15.7866C52.2212 15.2115 51.7807 14.5605 51.4709 13.8246C51.1785 13.0877 51.0227 12.3153 51.0227 11.4926C51.0227 10.6522 51.1785 9.87489 51.4709 9.14789C51.7807 8.40609 52.2212 7.758 52.805 7.17995C53.384 6.62162 54.0268 6.18562 54.7703 5.86503C55.51 5.54937 56.2961 5.41225 57.1142 5.41225ZM2.55661 17.2593V8.40606H-0.000244141V5.65489H8.20279V8.40606H5.65368V17.2593H2.55661ZM78.1886 17.2593H75.2832L74.6162 12.2413C74.5784 11.8951 74.5223 11.5183 74.4923 11.0684C74.4526 10.6324 74.4245 10.156 74.3926 9.64897C74.3267 10.1432 74.166 10.7577 73.9617 11.4926C73.8998 11.6435 73.8746 11.7619 73.8572 11.826L72.3091 17.2593H70.2431L68.6951 11.826C68.6757 11.7619 68.6515 11.6435 68.5905 11.4926C68.3872 10.7577 68.2304 10.1432 68.1849 9.64897C68.151 10.0909 68.1142 10.5289 68.0571 10.9678C68.0271 11.3881 67.9738 11.826 67.9254 12.2413L67.2525 17.2593H64.3656L66.116 5.65489H69.1995L70.9169 11.6435C70.9169 11.686 70.9508 11.7619 70.9615 11.8655C71.1386 12.3952 71.2413 12.8411 71.2752 13.2278C71.2936 13.0167 71.3265 12.7918 71.401 12.5392C71.4504 12.2857 71.5307 11.9779 71.6179 11.6347L73.3576 5.65489H76.4344L78.1886 17.2593ZM57.1141 17.574V14.8899C57.9738 14.8899 58.6651 14.5792 59.2363 13.9311C59.8152 13.2781 60.0785 12.4751 60.0785 11.4926C60.0785 10.518 59.8152 9.70325 59.2246 9.05319C58.6563 8.40609 57.9564 8.0707 57.1141 8.0707V5.41225C57.9157 5.41225 58.6931 5.54937 59.4483 5.86503C60.1879 6.18562 60.8589 6.62162 61.4252 7.17995C61.9858 7.758 62.4253 8.40609 62.7283 9.14789C63.042 9.87489 63.194 10.6522 63.194 11.4926C63.194 12.3153 63.042 13.1025 62.7283 13.8423C62.435 14.5605 61.9858 15.2115 61.4252 15.7866C60.8414 16.3656 60.1879 16.8016 59.427 17.1193C58.6931 17.4172 57.9157 17.574 57.1141 17.574Z" fill="#ED1C24"/>
</g>
<path fill-rule="evenodd" clip-rule="evenodd" d="M82.4579 10.6148H83.0658C83.324 10.6148 83.5481 10.5949 83.7546 10.5816V12.6027H83.5744H82.4579V15.0174H83.5325H83.7546V17.293C83.4614 17.293 83.136 17.3006 82.7667 17.3006H79.5508V6.15626H82.6995C83.0765 6.15626 83.4263 6.15626 83.7546 6.17992V8.39592C83.5637 8.37416 83.3406 8.35712 83.1175 8.35712H82.4579V10.6148ZM94.9925 6.15625V7.97106L94.9847 7.95498C94.9087 8.24641 94.8649 8.4962 94.7918 8.74505C94.7236 8.99674 94.6554 9.23708 94.5911 9.45944L93.4483 13.1326H94.9925V15.3051H92.7712L92.1662 17.3006H89.0652L93.0138 6.15625H94.9925ZM83.7546 10.5817C84.155 10.5467 84.4619 10.4814 84.6626 10.3612C84.9325 10.1871 85.0718 9.90329 85.0718 9.50304C85.0718 9.08577 84.9549 8.79529 84.6762 8.62876C84.5018 8.51237 84.1881 8.43005 83.7546 8.39599V6.17999C84.4833 6.19229 85.0357 6.2273 85.3777 6.27839C85.9057 6.35314 86.348 6.49791 86.7134 6.69945C87.1518 6.92938 87.4596 7.23689 87.674 7.62484C87.9088 8.00994 88.012 8.44803 88.012 8.95236C88.012 9.58253 87.8542 10.0698 87.5288 10.4559C87.1761 10.8239 86.6676 11.0974 85.934 11.3112C86.7455 11.3746 87.3817 11.6386 87.8367 12.124C88.3082 12.6274 88.5264 13.2822 88.5264 14.111C88.5264 14.7119 88.4066 15.2257 88.1465 15.6846C87.8863 16.1293 87.5103 16.4869 87.0427 16.733C86.6442 16.9298 86.161 17.0774 85.5823 17.1663C85.1702 17.2392 84.5486 17.2695 83.7546 17.2931V15.0175C84.382 14.9967 84.8302 14.9181 85.102 14.7431C85.4128 14.5851 85.5735 14.2804 85.5735 13.8546C85.5735 13.3891 85.4128 13.0532 85.1439 12.8876C84.8798 12.6974 84.4132 12.617 83.7546 12.6028V10.5817ZM115.638 17.3006V6.15625H118.736V11.2175L122.371 6.15625H126.002L121.761 11.5922L126.37 17.3006H122.478L118.736 12.2952V17.3006H115.638ZM101.994 17.3006V6.15625H104.996L109.328 11.8836C109.41 12.0113 109.546 12.2432 109.74 12.6027C109.932 12.9462 110.136 13.371 110.363 13.8545C110.308 13.389 110.26 12.9831 110.22 12.6169C110.204 12.2583 110.192 11.9413 110.192 11.6537V6.15625H113.18V17.3006H110.192L105.856 11.5401C105.779 11.4171 105.64 11.1976 105.453 10.8513C105.261 10.4908 105.053 10.0697 104.828 9.60704C104.876 10.0631 104.931 10.4813 104.964 10.8239C104.979 11.1976 104.996 11.5165 104.996 11.7937V17.3006H101.994ZM94.9925 15.3051V13.1326H96.5328L95.3803 9.45944C95.3462 9.35062 95.2887 9.16422 95.2332 8.91442C95.1718 8.67409 95.0861 8.35711 94.9925 7.97106V6.15625H96.94L100.897 17.3006H97.7866L97.2002 15.3051H94.9925Z" fill="black"/>
<path fill-rule="evenodd" clip-rule="evenodd" d="M151.966 5.99835L145.969 11.9918L151.966 18.0125L145.969 24.0002L133.958 11.9918L145.969 0L151.966 5.99835ZM170.002 11.9918L157.99 0L151.966 5.99835L157.99 11.9918L151.966 18.0125L157.99 24.0002L170.002 11.9918Z" fill="#ED1C24"/>
</svg>
